<svg width="137" height="85" viewBox="0 0 137 85" fill="none" xmlns="http://www.w3.org/2000/svg">
<rect y="0.904297" width="84" height="84" rx="42" fill="#D9D9D9"/>
<path fill-rule="evenodd" clip-rule="evenodd" d="M23.1613 27.6543C23.1613 25.5445 24.9532 23.9043 27.0738 23.9043H57.9262C60.0468 23.9043 61.8387 25.5445 61.8387 27.6543V50.6492C61.8387 51.0244 62.0463 51.3923 62.4197 51.6047L66.0672 53.6795C69.5775 55.6763 67.9439 60.6543 64.0702 60.6543H20.9298C17.0561 60.6543 15.4225 55.6763 18.9328 53.6795L23.2179 51.242L23.8921 52.3767L23.2179 51.242C23.824 50.8972 24.5141 50.7168 25.2149 50.7168H52.7841C53.525 50.7168 54.1256 51.3044 54.1256 52.0293C54.1256 52.7542 53.525 53.3418 52.7841 53.3418H25.2149C24.9837 53.3418 24.7594 53.4015 24.5663 53.5113L20.2812 55.9488C19.3196 56.4959 19.5883 58.0293 20.9298 58.0293H64.0702C65.4117 58.0293 65.6804 56.4959 64.7188 55.9488L61.0713 53.874C59.8959 53.2054 59.1558 51.9864 59.1558 50.6492V27.6543C59.1558 27.0717 58.6455 26.5293 57.9262 26.5293H27.0738C26.3545 26.5293 25.8442 27.0717 25.8442 27.6543V44.7168C25.8442 45.4417 25.2436 46.0293 24.5028 46.0293C23.7619 46.0293 23.1613 45.4417 23.1613 44.7168V27.6543Z" fill="black"/>
<mask id="mask0_145_485" style="mask-type:alpha" maskUnits="userSpaceOnUse" x="92" y="39" width="45" height="8">
<path d="M137 42.9043C137 44.9754 135.321 46.6543 133.25 46.6543L95.75 46.6543C93.6789 46.6543 92 44.9754 92 42.9043C92 40.8332 93.6789 39.1543 95.75 39.1543L133.25 39.1543C135.321 39.1543 137 40.8332 137 42.9043Z" fill="#D9D9D9"/>
</mask>
<g mask="url(#mask0_145_485)">
<rect x="90.6436" y="73.666" width="70.0985" height="47.7266" rx="7.5" transform="rotate(-90 90.6436 73.666)" fill="url(#paint0_linear_145_485)"/>
</g>
<defs>
<linearGradient id="paint0_linear_145_485" x1="90.6436" y1="97.5293" x2="160.742" y2="97.5293" gradientUnits="userSpaceOnUse">
<stop offset="0.25" stop-color="#9ECE69"/>
<stop offset="0.525" stop-color="#AEDA33"/>
</linearGradient>
</defs>
</svg>
