<svg width="137" height="85" viewBox="0 0 137 85" fill="none" xmlns="http://www.w3.org/2000/svg">
<rect y="0.404297" width="84" height="84" rx="42" fill="#D9D9D9"/>
<path fill-rule="evenodd" clip-rule="evenodd" d="M42.5 20.049C29.6738 20.049 19.6842 28.6349 19.6842 38.7709C19.6842 43.1625 21.5312 47.2274 24.6783 50.4543C26.114 51.9264 27.8192 53.2222 29.738 54.2878C30.3837 54.6465 30.6121 55.4529 30.2481 56.0891C29.8841 56.7253 29.0656 56.9504 28.4199 56.5917C26.284 55.4055 24.3684 53.9536 22.7428 52.2868C19.1751 48.6286 17 43.9262 17 38.7709C17 26.7666 28.6421 17.4043 42.5 17.4043C56.3579 17.4043 68 26.7666 68 38.7709C68 50.6715 56.5581 59.9756 42.8585 60.1354L29.7422 67.4813C29.0978 67.8422 28.2785 67.6201 27.9122 66.9852C27.5459 66.3503 27.7713 65.543 28.4157 65.1821L41.8368 57.6655C42.0389 57.5523 42.2675 57.4928 42.5 57.4928C55.3262 57.4928 65.3158 48.9069 65.3158 38.7709C65.3158 28.6349 55.3262 20.049 42.5 20.049Z" fill="black"/>
<mask id="mask0_145_482" style="mask-type:alpha" maskUnits="userSpaceOnUse" x="92" y="38" width="45" height="9">
<path d="M137 42.4043C137 44.4754 135.321 46.1543 133.25 46.1543L95.75 46.1543C93.6789 46.1543 92 44.4754 92 42.4043C92 40.3332 93.6789 38.6543 95.75 38.6543L133.25 38.6543C135.321 38.6543 137 40.3332 137 42.4043Z" fill="#D9D9D9"/>
</mask>
<g mask="url(#mask0_145_482)">
<rect x="90.6436" y="73.166" width="70.0985" height="47.7266" rx="7.5" transform="rotate(-90 90.6436 73.166)" fill="url(#paint0_linear_145_482)"/>
</g>
<defs>
<linearGradient id="paint0_linear_145_482" x1="90.6436" y1="97.0293" x2="160.742" y2="97.0293" gradientUnits="userSpaceOnUse">
<stop offset="0.25" stop-color="#9ECE69"/>
<stop offset="0.525" stop-color="#AEDA33"/>
</linearGradient>
</defs>
</svg>
