<svg width="144" height="85" viewBox="0 0 144 85" fill="none" xmlns="http://www.w3.org/2000/svg">
<rect y="0.904297" width="84" height="84" rx="42" fill="#D9D9D9"/>
<path fill-rule="evenodd" clip-rule="evenodd" d="M51.3778 22.7556C48.9668 20.2731 45.564 18.9043 41.5936 18.9043C37.6231 18.9043 34.2204 20.2731 31.8093 22.7556C29.4001 25.2362 28.0776 28.7289 28.0776 32.799C28.0776 38.2786 30.4345 41.8103 33.3516 43.9304C33.9185 44.3424 34.5043 44.6998 35.0954 45.008C31.8355 45.9147 29.1886 47.4954 27.0335 49.456C23.6259 52.5561 21.5138 56.5446 20.0909 60.1161C19.8331 60.7631 20.1423 61.4991 20.7815 61.76C21.4207 62.0209 22.1478 61.7079 22.4055 61.0609C23.7599 57.6615 25.6942 54.0711 28.7018 51.3349C31.6791 48.6263 35.7736 46.6938 41.5936 46.6938C47.0343 46.6938 50.9621 48.3827 53.8777 50.8063C56.8177 53.2502 58.7976 56.5 60.2162 59.7125C61.1626 61.8558 59.5016 64.378 56.8944 64.378H28.0987C27.4095 64.378 26.8508 64.9435 26.8508 65.6411C26.8508 66.3388 27.4095 66.9043 28.0987 66.9043H56.8944C61.0176 66.9043 64.2948 62.758 62.4947 58.6815C60.9887 55.271 58.8102 51.6375 55.4616 48.854C53.474 47.2017 51.0981 45.8693 48.253 45.0536C49.7747 44.2019 51.0255 43.0715 52.0209 41.7904C54.1743 39.0189 55.1095 35.5784 55.1095 32.799C55.1095 28.7289 53.787 25.2362 51.3778 22.7556ZM49.5981 24.5267C51.4827 26.4672 52.6138 29.2902 52.6138 32.799C52.6138 35.0723 51.8315 37.9476 50.0591 40.2287C48.3209 42.4659 45.6084 44.1675 41.5936 44.1675C39.9698 44.1675 37.1684 43.5943 34.8072 41.8782C32.5102 40.2088 30.5734 37.4248 30.5734 32.799C30.5734 29.2902 31.7044 26.4672 33.5891 24.5267C35.4718 22.5881 38.2032 21.4306 41.5936 21.4306C44.984 21.4306 47.7153 22.5881 49.5981 24.5267Z" fill="black"/>
<mask id="mask0_145_491" style="mask-type:alpha" maskUnits="userSpaceOnUse" x="99" y="39" width="45" height="8">
<path d="M144 42.9043C144 44.9754 142.321 46.6543 140.25 46.6543L102.75 46.6543C100.679 46.6543 99 44.9754 99 42.9043C99 40.8332 100.679 39.1543 102.75 39.1543L140.25 39.1543C142.321 39.1543 144 40.8332 144 42.9043Z" fill="#D9D9D9"/>
</mask>
<g mask="url(#mask0_145_491)">
<rect x="97.6436" y="73.666" width="70.0985" height="47.7266" rx="7.5" transform="rotate(-90 97.6436 73.666)" fill="url(#paint0_linear_145_491)"/>
</g>
<defs>
<linearGradient id="paint0_linear_145_491" x1="97.6436" y1="97.5293" x2="167.742" y2="97.5293" gradientUnits="userSpaceOnUse">
<stop offset="0.25" stop-color="#9ECE69"/>
<stop offset="0.525" stop-color="#AEDA33"/>
</linearGradient>
</defs>
</svg>
