<svg width="137" height="85" viewBox="0 0 137 85" fill="none" xmlns="http://www.w3.org/2000/svg">
<rect y="0.904297" width="84" height="84" rx="42" fill="#D9D9D9"/>
<path fill-rule="evenodd" clip-rule="evenodd" d="M48.6971 24.8561C49.9017 23.4325 52.0657 23.3425 53.3843 24.6612L56.7437 28.0205C57.9159 29.1928 57.9939 31.0679 56.9231 32.3334L34.8111 58.4657C34.7181 58.5756 34.6038 58.6654 34.4751 58.7298L30.0008 60.9669H59.5C60.0868 60.9669 60.5625 61.4426 60.5625 62.0294C60.5625 62.6162 60.0868 63.0919 59.5 63.0919H25.5C25.0072 63.0919 24.5791 62.7531 24.4659 62.2735C24.3527 61.794 24.5841 61.2995 25.0248 61.0791L33.3298 56.9266L55.3009 30.9608C55.6578 30.5389 55.6318 29.9139 55.2411 29.5231L51.8817 26.1638C51.4422 25.7242 50.7208 25.7542 50.3193 26.2287L28.5683 51.9345L26.508 58.1154C26.3224 58.6721 25.7207 58.973 25.164 58.7874C24.6073 58.6018 24.3064 58.0001 24.492 57.4434L26.617 51.0684C26.6598 50.9402 26.7266 50.8213 26.8139 50.7181L48.6971 24.8561Z" fill="black"/>
<mask id="mask0_145_487" style="mask-type:alpha" maskUnits="userSpaceOnUse" x="92" y="39" width="45" height="8">
<path d="M137 42.9043C137 44.9754 135.321 46.6543 133.25 46.6543L95.75 46.6543C93.6789 46.6543 92 44.9754 92 42.9043C92 40.8332 93.6789 39.1543 95.75 39.1543L133.25 39.1543C135.321 39.1543 137 40.8332 137 42.9043Z" fill="#D9D9D9"/>
</mask>
<g mask="url(#mask0_145_487)">
<rect x="90.6436" y="73.666" width="70.0985" height="47.7266" rx="7.5" transform="rotate(-90 90.6436 73.666)" fill="url(#paint0_linear_145_487)"/>
</g>
<defs>
<linearGradient id="paint0_linear_145_487" x1="90.6436" y1="97.5293" x2="160.742" y2="97.5293" gradientUnits="userSpaceOnUse">
<stop offset="0.25" stop-color="#9ECE69"/>
<stop offset="0.525" stop-color="#AEDA33"/>
</linearGradient>
</defs>
</svg>
