<svg width="142" height="85" viewBox="0 0 142 85" fill="none" xmlns="http://www.w3.org/2000/svg">
<rect y="0.904297" width="84" height="84" rx="42" fill="#D9D9D9"/>
<path fill-rule="evenodd" clip-rule="evenodd" d="M17.6842 45.8081L17.6842 53.7697C17.6842 55.9682 19.4869 57.7505 21.7105 57.7505L59.2895 57.7504C61.5131 57.7504 63.3158 55.9682 63.3158 53.7697L63.3158 32.5389C63.3158 30.3404 61.5131 28.5581 59.2895 28.5581L21.7105 28.5581C19.4869 28.5581 17.6842 30.3404 17.6842 32.5389L17.6842 36.5197L56.6053 36.5197C57.3465 36.5197 57.9474 37.1138 57.9474 37.8466C57.9474 38.5794 57.3465 39.1735 56.6053 39.1735L16.3421 39.1735C15.6009 39.1735 15 38.5794 15 37.8466L15 32.5389C15 28.8747 18.0044 25.9043 21.7105 25.9043L59.2895 25.9043C62.9956 25.9043 66 28.8747 66 32.5389L66 53.7697C66 57.4339 62.9956 60.4043 59.2895 60.4043L21.7105 60.4043C18.0044 60.4043 15 57.4339 15 53.7697L15 45.8081C15 45.0753 15.6009 44.4812 16.3421 44.4812C17.0833 44.4812 17.6842 45.0753 17.6842 45.8081Z" fill="black"/>
<mask id="mask0_145_489" style="mask-type:alpha" maskUnits="userSpaceOnUse" x="97" y="39" width="45" height="8">
<path d="M142 42.9043C142 44.9754 140.321 46.6543 138.25 46.6543L100.75 46.6543C98.6789 46.6543 97 44.9754 97 42.9043C97 40.8332 98.6789 39.1543 100.75 39.1543L138.25 39.1543C140.321 39.1543 142 40.8332 142 42.9043Z" fill="#D9D9D9"/>
</mask>
<g mask="url(#mask0_145_489)">
<rect x="95.6436" y="73.666" width="70.0985" height="47.7266" rx="7.5" transform="rotate(-90 95.6436 73.666)" fill="url(#paint0_linear_145_489)"/>
</g>
<defs>
<linearGradient id="paint0_linear_145_489" x1="95.6436" y1="97.5293" x2="165.742" y2="97.5293" gradientUnits="userSpaceOnUse">
<stop offset="0.25" stop-color="#9ECE69"/>
<stop offset="0.525" stop-color="#AEDA33"/>
</linearGradient>
</defs>
</svg>
