<svg width="173" height="65" viewBox="0 0 173 65" fill="none" xmlns="http://www.w3.org/2000/svg">
<g filter="url(#filter0_b_17_147)">
<rect x="0.922058" y="0.704102" width="171.865" height="64.0852" rx="5.82593" fill="black" fill-opacity="0.78"/>
<path d="M34.0426 16.3125H18.2039V32.1513H34.0426V16.3125Z" fill="#F25022"/>
<path d="M51.5255 16.3125H35.6868V32.1513H51.5255V16.3125Z" fill="#7FBA00"/>
<path d="M34.0425 33.7764H18.2038V49.6151H34.0425V33.7764Z" fill="#00A4EF"/>
<path d="M51.5255 33.7764H35.6868V49.6151H51.5255V33.7764Z" fill="#FFB900"/>
<path d="M81.471 34.1541C81.471 33.6816 81.6411 33.3036 81.9813 32.9823C82.3215 32.661 82.7185 32.5098 83.191 32.5098C83.6824 32.5098 84.0982 32.6799 84.4195 33.0012C84.7408 33.3225 84.9109 33.7194 84.9109 34.1541C84.9109 34.6077 84.7408 35.0047 84.4006 35.3071C84.0604 35.6284 83.6635 35.7796 83.1721 35.7796C82.6807 35.7796 82.2837 35.6284 81.9435 35.3071C81.6411 34.9858 81.471 34.6077 81.471 34.1541ZM84.5896 49.6149H81.7734V37.6129H84.5896V49.6149Z" fill="white"/>
<path d="M93.1705 47.5553C93.5863 47.5553 94.0588 47.4608 94.5691 47.2718C95.0795 47.0828 95.5331 46.8182 95.9678 46.4969V49.1241C95.5142 49.3887 95.0039 49.5777 94.4368 49.71C93.8698 49.8423 93.2272 49.9179 92.5468 49.9179C90.789 49.9179 89.3526 49.3509 88.2374 48.2358C87.1223 47.1206 86.5742 45.6842 86.5742 43.9642C86.5742 42.0363 87.1412 40.4487 88.2752 39.2012C89.4093 37.9538 90.9969 37.3301 93.076 37.3301C93.6052 37.3301 94.1344 37.4057 94.6825 37.538C95.2307 37.6703 95.6465 37.8404 95.9678 38.0105V40.7133C95.5331 40.392 95.0795 40.1463 94.6258 39.9762C94.1722 39.8061 93.6997 39.7116 93.2272 39.7116C92.1121 39.7116 91.2237 40.0707 90.5244 40.7889C89.844 41.5071 89.5038 42.49 89.5038 43.7185C89.5038 44.9281 89.8251 45.8732 90.4866 46.5536C91.1481 47.234 92.0365 47.5553 93.1705 47.5553Z" fill="white"/>
<path d="M104.001 37.4248C104.227 37.4248 104.435 37.4437 104.605 37.4626C104.776 37.5004 104.946 37.5382 105.059 37.576V40.43C104.908 40.3166 104.7 40.2221 104.416 40.1276C104.133 40.0331 103.793 39.9764 103.377 39.9764C102.678 39.9764 102.092 40.2599 101.619 40.8458C101.147 41.4317 100.901 42.3201 100.901 43.5486V49.6157H98.0847V37.6138H100.901V39.5039H100.939C101.203 38.8424 101.581 38.332 102.111 37.9729C102.64 37.6138 103.264 37.4248 104.001 37.4248Z" fill="white"/>
<path d="M105.21 43.7941C105.21 41.8095 105.777 40.2408 106.892 39.0689C108.007 37.916 109.576 37.3301 111.561 37.3301C113.432 37.3301 114.906 37.8971 115.965 39.0122C117.023 40.1274 117.552 41.6394 117.552 43.5295C117.552 45.4763 116.985 47.0261 115.87 48.1791C114.755 49.332 113.224 49.899 111.296 49.899C109.444 49.899 107.951 49.3509 106.873 48.2547C105.758 47.1773 105.21 45.6842 105.21 43.7941ZM108.159 43.6996C108.159 44.947 108.442 45.911 109.009 46.5725C109.576 47.234 110.389 47.5553 111.447 47.5553C112.468 47.5553 113.262 47.234 113.791 46.5725C114.32 45.911 114.604 44.9281 114.604 43.624C114.604 42.3388 114.32 41.3559 113.772 40.6944C113.224 40.0329 112.43 39.7116 111.429 39.7116C110.389 39.7116 109.595 40.0518 109.009 40.7511C108.442 41.4504 108.159 42.4144 108.159 43.6996Z" fill="white"/>
<path d="M121.748 40.7694C121.748 41.1663 121.881 41.4876 122.126 41.7144C122.391 41.9412 122.958 42.2247 123.827 42.5838C124.961 43.0374 125.755 43.5478 126.209 44.1148C126.663 44.6818 126.889 45.3622 126.889 46.1561C126.889 47.2901 126.455 48.1973 125.585 48.8778C124.716 49.5582 123.544 49.8984 122.07 49.8984C121.578 49.8984 121.03 49.8417 120.425 49.7094C119.821 49.596 119.31 49.4259 118.894 49.2558V46.4774C119.405 46.8365 119.953 47.12 120.558 47.3279C121.144 47.5358 121.692 47.6492 122.164 47.6492C122.807 47.6492 123.279 47.5547 123.582 47.3846C123.884 47.2145 124.035 46.9121 124.035 46.4774C124.035 46.0805 123.884 45.7591 123.563 45.4945C123.242 45.2299 122.656 44.9086 121.767 44.5684C120.728 44.1337 119.991 43.6423 119.556 43.0942C119.121 42.546 118.894 41.8467 118.894 41.0151C118.894 39.9377 119.329 39.0494 120.18 38.3501C121.03 37.6508 122.145 37.3105 123.525 37.3105C123.941 37.3105 124.413 37.3483 124.943 37.4429C125.472 37.5374 125.907 37.6508 126.247 37.802V40.4859C125.869 40.2401 125.434 40.0322 124.943 39.8432C124.451 39.6731 123.941 39.5786 123.468 39.5786C122.939 39.5786 122.504 39.692 122.221 39.8999C121.9 40.1078 121.748 40.4103 121.748 40.7694Z" fill="white"/>
<path d="M128.137 43.7941C128.137 41.8095 128.704 40.2408 129.819 39.0689C130.934 37.916 132.503 37.3301 134.487 37.3301C136.359 37.3301 137.833 37.8971 138.891 39.0122C139.95 40.1274 140.479 41.6394 140.479 43.5295C140.479 45.4763 139.912 47.0261 138.797 48.1791C137.682 49.332 136.151 49.899 134.223 49.899C132.371 49.899 130.877 49.3509 129.8 48.2547C128.685 47.1773 128.137 45.6842 128.137 43.7941ZM131.066 43.6996C131.066 44.947 131.35 45.911 131.917 46.5725C132.484 47.234 133.297 47.5553 134.355 47.5553C135.376 47.5553 136.17 47.234 136.699 46.5725C137.228 45.911 137.512 44.9281 137.512 43.624C137.512 42.3388 137.228 41.3559 136.68 40.6944C136.132 40.0329 135.338 39.7116 134.336 39.7116C133.297 39.7116 132.503 40.0518 131.917 40.7511C131.35 41.4504 131.066 42.4144 131.066 43.6996Z" fill="white"/>
<path d="M149.797 39.9386V46.1003C149.797 47.3855 150.099 48.3305 150.685 48.9732C151.271 49.6158 152.178 49.9182 153.369 49.9182C153.766 49.9182 154.182 49.8804 154.598 49.7859C155.013 49.6914 155.316 49.6158 155.486 49.5024V47.1587C155.316 47.2721 155.108 47.3666 154.881 47.4422C154.654 47.5178 154.446 47.5556 154.295 47.5556C153.728 47.5556 153.294 47.4044 153.029 47.102C152.764 46.7996 152.632 46.2704 152.632 45.5332V39.9197H155.505V37.6139H152.651V34.0605L149.816 34.93V37.6328H145.601V36.1774C145.601 35.4592 145.752 34.9111 146.073 34.5331C146.395 34.155 146.848 33.9849 147.434 33.9849C147.737 33.9849 148.001 34.0227 148.247 34.0983C148.474 34.1739 148.644 34.2495 148.738 34.3062V31.8681C148.531 31.7925 148.304 31.7547 148.039 31.7169C147.775 31.6791 147.472 31.6602 147.132 31.6602C145.847 31.6602 144.788 32.0571 143.976 32.8698C143.163 33.6825 142.747 34.7032 142.747 35.9695V37.6328H140.743V39.9386H142.747V49.6347H145.601V39.9386H149.797Z" fill="white"/>
<path d="M79.0519 32.8691V49.6151H76.1412V36.4981H76.1034L70.9057 49.6151H68.9779L63.6479 36.4981H63.6101V49.6151H60.9262V32.8691H65.0843L69.904 45.2869H69.9796L75.0639 32.8691H79.0519Z" fill="white"/>
<path d="M68.5619 25.6301C67.5602 26.1971 66.4262 26.4806 65.1598 26.4806C64.1959 26.4806 63.3454 26.2727 62.5893 25.838C61.8522 25.4222 61.2663 24.8174 60.8694 24.0424C60.4725 23.2675 60.2646 22.3981 60.2646 21.4341C60.2646 20.4135 60.4914 19.4874 60.9261 18.6935C61.3608 17.8997 61.9845 17.2571 62.7972 16.8035C63.61 16.3499 64.5172 16.123 65.5378 16.123C66.0482 16.123 66.5585 16.1797 67.0688 16.2743C67.5791 16.3688 67.9949 16.5011 68.3162 16.6523V18.1643C67.5602 17.654 66.5963 17.4083 65.4244 17.4083C64.7251 17.4083 64.1014 17.5784 63.5344 17.9186C62.9673 18.2588 62.5326 18.7313 62.2302 19.3173C61.9278 19.9221 61.7766 20.6025 61.7766 21.3585C61.7766 22.5493 62.0979 23.4943 62.7216 24.1936C63.3454 24.893 64.2148 25.2332 65.311 25.2332C66.0104 25.2332 66.6341 25.1009 67.1633 24.8174V22.228H65.0275V20.9805H68.5619V25.6301Z" fill="white"/>
<path d="M76.7081 23.1164H71.7561C71.775 23.8347 72.0018 24.3828 72.3798 24.7797C72.7768 25.1577 73.2871 25.3656 73.9297 25.3656C74.7802 25.3656 75.5173 25.1199 76.16 24.6285V25.8381C75.8765 26.0271 75.5173 26.1972 75.0826 26.3106C74.6479 26.4241 74.1943 26.4808 73.7407 26.4808C72.6633 26.4808 71.8128 26.1594 71.2269 25.5168C70.641 24.8742 70.3386 23.967 70.3386 22.7951C70.3386 22.0769 70.4898 21.4154 70.7733 20.8484C71.0568 20.2624 71.4726 19.8088 71.9829 19.4875C72.4932 19.1662 73.0792 18.9961 73.7029 18.9961C74.629 18.9961 75.3661 19.2985 75.8954 19.9033C76.4246 20.5081 76.6892 21.3398 76.6892 22.4171V23.1164H76.7081ZM75.3283 22.0391C75.3283 21.4154 75.1771 20.9429 74.8936 20.6216C74.6101 20.3002 74.2132 20.1301 73.684 20.1301C73.2115 20.1301 72.7956 20.3002 72.4365 20.6405C72.0774 20.9807 71.8695 21.4532 71.7561 22.0391H75.3283Z" fill="white"/>
<path d="M82.0759 26.2349C81.9436 26.3105 81.7735 26.3672 81.5278 26.405C81.301 26.4428 81.0931 26.4617 80.9041 26.4617C79.581 26.4617 78.9195 25.7246 78.9195 24.2692V20.3001H77.7099V19.166H78.9195V17.465L80.2993 17.0303V19.1471H82.057V20.2812H80.2993V24.0235C80.2993 24.496 80.3749 24.8362 80.5261 25.0253C80.6773 25.2143 80.9419 25.3088 81.3388 25.3088C81.6034 25.3088 81.8491 25.2332 82.057 25.082V26.2349H82.0759Z" fill="white"/>
<path d="M88.918 16.6341C88.918 16.8609 88.8424 17.0499 88.6723 17.22C88.5022 17.3901 88.2943 17.4657 88.0486 17.4657C87.8029 17.4657 87.595 17.3901 87.4248 17.22C87.2547 17.0688 87.1791 16.8609 87.1791 16.6152C87.1791 16.3695 87.2736 16.1616 87.4437 16.0104C87.6139 15.8592 87.8218 15.7646 88.0486 15.7646C88.2754 15.7646 88.4833 15.8403 88.6534 16.0104C88.8424 16.1994 88.918 16.3884 88.918 16.6341ZM88.729 26.3112H87.3492V19.1668H88.729V26.3112Z" fill="white"/>
<path d="M94.7203 26.2349C94.588 26.3105 94.4179 26.3672 94.1722 26.405C93.9454 26.4428 93.7375 26.4617 93.5485 26.4617C92.2254 26.4617 91.5639 25.7246 91.5639 24.2692V20.3001H90.3543V19.166H91.5639V17.465L92.9437 17.0303V19.1471H94.7014V20.2812H92.9437V24.0235C92.9437 24.496 93.0193 24.8362 93.1705 25.0253C93.3217 25.2143 93.5863 25.3088 93.9832 25.3088C94.2478 25.3088 94.4935 25.2332 94.7014 25.082V26.2349H94.7203Z" fill="white"/>
<path d="M103.755 16.8982C103.528 16.7848 103.282 16.7092 102.999 16.7092C102.224 16.7092 101.846 17.1818 101.846 18.1268V19.1474H103.471V20.2815H101.846V26.2919H100.466V20.3004H99.2565V19.1663H100.466V18.0701C100.466 17.3141 100.674 16.7092 101.109 16.2556C101.543 15.802 102.129 15.5752 102.885 15.5752C103.263 15.5752 103.547 15.613 103.774 15.7075V16.8982H103.755Z" fill="white"/>
<path d="M108.839 20.5462C108.764 20.4895 108.612 20.4328 108.423 20.3761C108.234 20.3383 108.064 20.3005 107.932 20.3005C107.441 20.3005 107.044 20.5273 106.741 20.962C106.439 21.3968 106.288 21.9638 106.288 22.6631V26.3109H104.908V19.1665H106.288V20.6029H106.326C106.477 20.1115 106.722 19.7335 107.044 19.45C107.365 19.1665 107.743 19.0342 108.159 19.0342C108.442 19.0342 108.669 19.072 108.82 19.1287V20.5462H108.839Z" fill="white"/>
<path d="M116.721 22.7006C116.721 23.8536 116.381 24.7797 115.719 25.4601C115.058 26.1405 114.169 26.4808 113.073 26.4808C111.996 26.4808 111.126 26.1405 110.484 25.479C109.841 24.8175 109.52 23.9292 109.52 22.814C109.52 21.6233 109.86 20.6972 110.521 20.0167C111.183 19.3363 112.09 18.9961 113.243 18.9961C114.32 18.9961 115.171 19.3174 115.776 19.9789C116.418 20.6405 116.721 21.5477 116.721 22.7006ZM115.303 22.7384C115.303 21.8879 115.114 21.2453 114.755 20.8106C114.377 20.3758 113.867 20.149 113.186 20.149C112.506 20.149 111.958 20.3758 111.561 20.8484C111.164 21.302 110.975 21.9635 110.975 22.7951C110.975 23.6079 111.164 24.2316 111.561 24.6852C111.958 25.1388 112.487 25.3656 113.186 25.3656C113.886 25.3656 114.415 25.1388 114.774 24.7041C115.114 24.2316 115.303 23.589 115.303 22.7384Z" fill="white"/>
<path d="M129.063 26.311H127.683V22.2474C127.683 21.5102 127.57 20.981 127.343 20.6408C127.116 20.3006 126.719 20.1494 126.171 20.1494C125.718 20.1494 125.321 20.3573 125.018 20.7731C124.697 21.1889 124.546 21.6992 124.546 22.2663V26.311H123.166V22.1151C123.166 20.8109 122.656 20.1494 121.654 20.1494C121.181 20.1494 120.785 20.3573 120.482 20.7542C120.18 21.1511 120.029 21.6614 120.029 22.2852V26.3299H118.649V19.1665H120.029V20.2817H120.047C120.558 19.4123 121.314 18.9964 122.278 18.9964C122.731 18.9964 123.147 19.1287 123.525 19.3745C123.884 19.6202 124.149 19.9793 124.319 20.4329C124.602 19.9415 124.924 19.5824 125.321 19.3367C125.718 19.1098 126.171 18.9775 126.7 18.9775C128.269 18.9775 129.044 19.9415 129.044 21.8882V26.311H129.063Z" fill="white"/>
</g>
<defs>
<filter id="filter0_b_17_147" x="-3.07794" y="-3.2959" width="179.865" height="72.085" filterUnits="userSpaceOnUse" color-interpolation-filters="sRGB">
<feFlood flood-opacity="0" result="BackgroundImageFix"/>
<feGaussianBlur in="BackgroundImageFix" stdDeviation="2"/>
<feComposite in2="SourceAlpha" operator="in" result="effect1_backgroundBlur_17_147"/>
<feBlend mode="normal" in="SourceGraphic" in2="effect1_backgroundBlur_17_147" result="shape"/>
</filter>
</defs>
</svg>
